<?xml version="1.0" standalone="no"?>
<!DOCTYPE svg PUBLIC "-//W3C//DTD SVG 20010904//EN"
 "http://www.w3.org/TR/2001/REC-SVG-20010904/DTD/svg10.dtd">
<svg version="1.0" xmlns="http://www.w3.org/2000/svg"
 width="3840.000000pt" height="2160.000000pt" viewBox="0 0 3840.000000 2160.000000"
 preserveAspectRatio="xMidYMid meet">
<g transform="translate(0.000000,2160.000000) scale(0.100000,-0.100000)"
fill="#9a9aa0ff" stroke="none">
<path d="M18845 20923 c-956 -20 -2019 -109 -2855 -239 -652 -101 -1406 -272
-1799 -408 -289 -100 -522 -359 -580 -646 -62 -308 -88 -1226 -72 -2585 13
-1083 20 -1372 86 -3355 8 -227 33 -805 40 -895 2 -38 7 -124 10 -190 7 -145
10 -190 35 -505 89 -1086 351 -2062 732 -2725 239 -415 511 -768 868 -1126
204 -205 250 -247 465 -422 88 -73 162 -134 165 -137 3 -3 86 -70 185 -149 99
-79 189 -151 200 -160 52 -43 393 -297 500 -372 560 -396 1287 -822 1735
-1016 130 -57 281 -107 370 -123 98 -18 333 -15 424 4 97 21 277 88 446 165
441 202 1237 678 1705 1021 174 127 223 164 340 254 201 156 660 526 750 605
23 20 72 63 110 96 539 466 1068 1183 1328 1800 289 684 474 1571 537 2575 33
523 68 1400 100 2455 5 182 17 557 26 835 13 385 17 819 18 1830 1 1163 -1
1359 -17 1605 -28 447 -44 550 -107 691 -80 177 -272 365 -455 444 -125 55
-524 165 -880 245 -66 15 -147 33 -180 41 -33 8 -168 34 -300 59 -828 157
-1670 251 -2715 305 -271 14 -869 30 -995 28 -55 -1 -154 -3 -220 -5z m895
-144 c146 -5 294 -11 330 -13 36 -3 187 -12 335 -20 149 -9 290 -18 315 -21
85 -9 135 -14 215 -20 44 -3 175 -16 290 -27 116 -11 230 -21 255 -22 25 0 47
-3 50 -6 3 -4 75 -14 160 -23 193 -22 697 -94 784 -111 25 -6 83 -17 326 -62
102 -19 199 -39 215 -44 17 -5 55 -13 85 -19 46 -9 292 -64 340 -76 8 -3 67
-18 130 -34 266 -67 429 -118 535 -167 60 -27 177 -113 230 -169 47 -50 115
-154 142 -220 49 -116 64 -230 83 -615 34 -710 34 -2090 0 -3415 -15 -551 -31
-1091 -35 -1165 -2 -36 -11 -310 -19 -610 -9 -300 -18 -570 -20 -600 -3 -30
-12 -201 -20 -380 -14 -294 -31 -570 -41 -690 -3 -25 -12 -130 -20 -235 -9
-104 -30 -282 -46 -395 -68 -476 -100 -633 -224 -1105 -41 -156 -156 -490
-209 -610 -10 -22 -24 -53 -31 -70 -35 -81 -108 -231 -153 -311 -87 -157 -94
-168 -123 -212 -16 -24 -29 -45 -29 -48 0 -3 -10 -20 -22 -37 -13 -17 -27 -39
-33 -48 -5 -9 -27 -41 -47 -70 -21 -30 -45 -65 -55 -79 -129 -189 -370 -476
-565 -673 -60 -60 -105 -114 -101 -120 3 -6 1 -7 -6 -3 -7 5 -36 -16 -74 -52
-34 -33 -96 -88 -137 -123 -41 -35 -80 -68 -86 -74 -7 -5 -20 -17 -31 -25
-107 -86 -123 -103 -112 -116 13 -16 39 -19 39 -4 0 6 5 10 12 10 7 0 -3 -15
-22 -34 -19 -19 -37 -32 -39 -30 -3 2 1 10 7 16 17 17 15 28 -5 22 -14 -5 -15
-4 -4 4 9 6 10 12 3 16 -6 4 -39 -16 -74 -45 -35 -28 -106 -85 -158 -127 -52
-41 -97 -78 -100 -82 -3 -3 -32 -26 -65 -51 -68 -51 -235 -179 -250 -192 -30
-25 -272 -202 -345 -252 -170 -117 -457 -308 -512 -340 -9 -5 -78 -47 -152
-93 -75 -45 -150 -90 -168 -101 -18 -10 -63 -37 -101 -59 -37 -23 -69 -42 -71
-42 -2 0 -71 -37 -153 -83 -311 -173 -600 -305 -790 -359 -107 -31 -371 -33
-478 -4 -178 48 -492 192 -834 382 -164 90 -203 113 -361 207 -73 43 -111 53
-94 25 4 -7 2 -8 -5 -4 -8 6 -9 12 -2 20 8 9 -15 28 -92 76 -237 147 -406 258
-602 399 -156 112 -305 221 -315 231 -3 3 -39 31 -80 62 -41 31 -103 78 -137
105 -33 26 -99 77 -145 113 -45 35 -88 69 -94 75 -24 22 -221 185 -307 253
-123 99 -371 326 -485 446 -40 42 -77 74 -81 71 -5 -2 -8 1 -7 8 0 8 -27 45
-60 83 -80 90 -172 199 -209 249 -17 22 -33 42 -36 45 -9 7 -160 217 -209 291
-58 87 -160 252 -199 321 -61 111 -201 399 -201 415 0 4 -9 25 -19 47 -10 23
-33 82 -51 131 -18 50 -36 99 -41 110 -14 35 -98 303 -114 368 -9 34 -19 69
-22 77 -3 8 -6 18 -5 22 1 3 -5 28 -13 55 -13 46 -34 132 -77 328 -62 282
-128 746 -153 1075 -8 107 -17 213 -20 235 -2 22 -9 130 -14 240 -6 110 -13
247 -16 305 -6 106 -11 198 -20 365 -6 104 -11 276 -25 755 -5 190 -14 449
-20 575 -28 641 -48 1673 -56 2850 -8 1136 18 1959 70 2189 32 142 112 269
243 388 132 118 262 167 803 304 118 30 269 66 335 80 66 13 174 36 240 49
160 34 484 91 620 111 60 8 112 17 115 19 4 2 65 11 136 19 71 9 156 20 189
26 33 6 141 20 240 31 99 11 214 24 255 29 41 5 170 16 285 25 116 9 221 18
235 21 14 2 129 11 255 19 127 8 262 17 300 19 89 6 511 25 635 29 200 7 856
4 1110 -4z"/>
<path d="M18635 20713 c-160 -4 -878 -42 -1025 -54 -69 -6 -147 -12 -175 -14
-205 -17 -424 -37 -495 -45 -47 -6 -150 -17 -230 -25 -80 -9 -167 -20 -195
-25 -27 -5 -95 -14 -150 -20 -262 -29 -853 -132 -1205 -210 -204 -45 -248 -55
-465 -110 -484 -123 -625 -189 -758 -358 -90 -115 -121 -202 -146 -402 -10
-80 -14 -133 -26 -360 -37 -678 -30 -2497 16 -3860 14 -441 18 -543 29 -920
11 -355 27 -816 35 -975 2 -49 7 -151 10 -225 3 -74 8 -171 10 -215 2 -44 7
-145 11 -225 3 -80 7 -158 9 -175 2 -16 11 -131 20 -255 60 -871 247 -1740
498 -2320 79 -183 103 -235 173 -361 179 -326 377 -609 652 -929 298 -348 984
-927 1757 -1483 170 -123 569 -380 780 -502 599 -350 969 -526 1203 -574 74
-15 254 -13 332 3 210 45 582 216 1020 471 36 20 85 49 109 62 396 225 987
627 1386 943 39 31 106 84 150 119 195 155 471 383 624 516 94 81 305 295 416
420 234 266 426 525 580 785 21 36 49 82 62 103 13 20 58 108 101 195 112 225
188 425 300 782 26 83 93 345 122 475 12 55 28 127 36 160 11 52 32 173 65
385 55 360 87 717 113 1265 9 176 20 403 26 505 5 102 17 417 25 700 8 283 19
616 25 740 6 124 15 407 20 630 5 223 12 452 15 510 17 360 26 2356 13 2830
-20 694 -42 913 -107 1054 -56 123 -188 259 -310 320 -41 21 -269 96 -421 139
-236 67 -821 195 -1158 253 -204 35 -354 58 -722 109 -137 19 -570 66 -745 80
-38 3 -110 10 -160 15 -100 11 -492 36 -850 55 -398 22 -970 29 -1400 18z
m-885 -1133 c310 -66 770 -254 1071 -436 288 -173 966 -686 1224 -924 156
-144 444 -307 740 -419 61 -23 121 -46 134 -52 13 -5 65 -20 115 -33 102 -27
180 -23 232 10 16 10 102 88 190 174 89 85 208 198 265 250 191 175 319 334
355 443 13 39 15 73 11 156 -5 110 -32 214 -92 360 -35 84 -22 97 40 40 99
-91 224 -264 295 -407 223 -451 204 -993 -41 -1218 -126 -115 -294 -199 -492
-246 -124 -29 -388 -32 -522 -5 -220 44 -332 79 -492 157 -150 73 -274 157
-436 292 -67 57 -178 148 -246 203 -222 179 -687 567 -773 645 -149 134 -683
496 -968 657 -147 83 -383 174 -563 218 -375 90 -719 28 -916 -165 -199 -195
-201 -534 -3 -622 49 -22 134 -25 267 -8 159 20 414 15 538 -9 286 -58 530
-191 749 -411 181 -183 271 -329 327 -535 55 -199 70 -555 24 -572 -7 -3 -43
19 -81 49 -135 110 -230 165 -381 222 -94 36 -120 42 -242 56 -247 28 -428
-77 -579 -339 -125 -215 -155 -241 -335 -281 -55 -12 -121 -30 -147 -40 -58
-22 -151 -87 -240 -169 -36 -33 -71 -61 -76 -61 -19 0 -23 36 -17 160 8 147
-8 425 -29 525 -50 236 -167 405 -331 480 -51 23 -165 31 -235 16 -102 -22
-275 -127 -369 -225 -74 -77 -68 -37 23 158 159 335 251 463 455 630 61 50
197 142 304 207 70 42 79 72 81 278 3 202 20 288 86 427 99 206 269 319 555
368 175 31 373 29 525 -4z m-1491 -2007 c178 -132 75 -714 -203 -1142 -58 -90
-179 -256 -196 -271 -3 -3 -32 -36 -64 -75 -122 -146 -254 -281 -331 -338
-148 -110 -300 -165 -410 -147 -93 15 -126 48 -146 148 -17 83 1 215 48 342
163 447 676 1184 978 1408 130 96 256 125 324 75z m2035 -327 c107 -30 221
-93 299 -166 40 -38 86 -86 101 -108 58 -84 132 -92 259 -31 164 78 309 77
480 -4 96 -46 200 -128 195 -154 -3 -12 -50 -15 -298 -17 -314 -3 -405 -11
-565 -52 -242 -62 -452 -170 -640 -330 -142 -122 -232 -255 -272 -404 -25 -90
-24 -302 0 -385 42 -141 124 -255 252 -348 131 -95 281 -165 460 -214 83 -23
112 -26 365 -30 219 -4 303 -2 415 11 476 57 454 55 562 43 78 -8 106 -8 114
0 20 20 -15 59 -68 80 -52 19 -108 20 -763 12 -226 -3 -291 0 -365 13 -304 57
-414 102 -541 220 -118 111 -168 234 -167 409 1 126 32 255 90 375 77 160 242
281 452 334 137 34 148 14 31 -61 -183 -117 -265 -278 -265 -519 0 -111 1
-117 33 -176 60 -110 179 -211 336 -285 149 -69 282 -84 481 -53 373 57 688
59 893 4 40 -11 77 -20 82 -20 21 0 8 18 -30 44 -22 14 -40 31 -40 36 0 29
167 -10 250 -58 64 -37 126 -97 165 -162 44 -72 89 -228 81 -275 -12 -63 -91
-96 -143 -60 -12 9 -44 52 -72 98 -90 149 -192 222 -323 233 -72 6 -100 -5
-79 -30 8 -9 19 -16 26 -16 30 0 111 -45 149 -84 23 -23 65 -80 94 -128 106
-175 157 -219 269 -234 28 -3 80 -1 115 5 34 6 134 15 221 21 294 21 496 -24
684 -151 74 -49 202 -187 257 -273 71 -114 99 -208 94 -321 -7 -150 -66 -240
-184 -280 -61 -21 -143 -24 -449 -15 -112 3 -129 1 -257 -33 -206 -55 -243
-74 -197 -98 8 -5 48 -24 89 -43 169 -77 340 -210 421 -327 71 -104 93 -164
93 -254 1 -100 -27 -162 -99 -217 -138 -105 -313 -88 -721 68 -78 30 -148 52
-156 49 -27 -11 -106 -194 -123 -284 -30 -166 -12 -357 45 -458 120 -211 339
-275 771 -223 204 24 221 22 240 -27 5 -15 7 -39 4 -55 -9 -41 -121 -93 -245
-114 -114 -20 -348 -14 -450 11 -202 49 -404 164 -492 281 -108 141 -148 276
-223 743 -15 91 -31 173 -36 183 -34 64 -179 0 -236 -105 -14 -25 -18 -55 -18
-137 1 -98 3 -109 32 -165 17 -33 47 -82 67 -110 20 -27 36 -55 36 -60 0 -6
-28 -40 -62 -76 -98 -102 -120 -128 -226 -270 -132 -178 -280 -405 -341 -522
-58 -113 -90 -261 -93 -420 -1 -70 -5 -103 -15 -113 -11 -11 -47 -14 -156 -14
-244 1 -379 37 -644 171 -216 109 -434 253 -419 277 2 4 53 9 113 10 311 7
575 46 733 108 158 62 328 173 446 289 154 152 301 375 247 375 -4 0 -24 -14
-43 -31 -73 -64 -287 -236 -340 -274 -146 -104 -416 -215 -605 -250 -109 -21
-340 -16 -450 9 -75 17 -180 65 -177 81 1 6 39 13 84 18 195 18 393 95 492
191 72 71 120 146 186 292 123 273 218 449 310 577 64 89 89 132 82 139 -24
24 -69 -7 -186 -125 -116 -117 -124 -128 -194 -263 -134 -259 -214 -359 -369
-461 -96 -63 -158 -92 -268 -124 -69 -21 -100 -24 -225 -23 -129 1 -154 4
-230 28 -395 128 -654 473 -730 973 -18 119 -20 176 -18 413 3 238 5 275 18
278 9 1 43 -19 76 -45 138 -111 387 -176 534 -139 99 25 236 98 349 187 14 11
108 66 208 121 101 55 183 104 183 109 0 35 -280 -21 -445 -90 -114 -48 -203
-65 -330 -66 -92 0 -105 2 -169 33 -48 23 -89 53 -140 105 -112 112 -143 193
-152 402 -12 246 25 539 97 770 129 412 260 629 435 722 l61 33 6 102 c10 155
57 331 111 415 30 48 116 130 179 173 27 18 96 54 152 81 57 27 106 53 109 58
3 4 -4 17 -15 27 -17 15 -37 19 -93 19 -59 0 -81 -5 -130 -30 -207 -105 -447
-476 -776 -1200 -102 -224 -145 -336 -210 -551 -121 -401 -159 -593 -191 -977
-21 -266 -29 -310 -57 -342 -42 -49 -126 -76 -186 -61 -90 22 -153 192 -175
471 -31 398 -24 683 24 973 63 375 128 603 282 982 85 212 134 302 280 523
114 171 126 180 173 130 35 -37 99 -63 173 -70 132 -12 189 52 262 297 36 120
84 201 169 286 95 95 171 136 316 171 78 19 116 22 210 19 64 -2 141 -11 174
-20z m-1789 -153 c14 -36 18 -495 6 -618 -22 -206 -107 -506 -204 -717 -40
-88 -49 -90 -93 -27 -15 22 -54 64 -86 94 -62 57 -126 85 -199 85 -74 0 -70
18 34 157 245 330 352 537 487 946 32 97 42 112 55 80z m-1743 -1373 c7 -130
62 -227 166 -295 35 -23 57 -29 120 -33 72 -4 100 1 172 32 8 3 21 2 28 -3 12
-7 11 -14 -2 -39 -57 -111 -163 -488 -192 -688 -9 -62 -17 -190 -18 -295 -2
-102 -6 -191 -10 -197 -5 -8 -38 -12 -91 -12 -90 0 -141 -16 -204 -64 -67 -50
-148 -21 -215 78 -34 50 -33 87 4 175 38 88 100 282 134 416 50 201 57 342 31
646 -15 185 -11 249 20 324 18 42 35 59 46 47 4 -4 9 -45 11 -92z m-304 -1694
c47 -53 91 -228 77 -304 -9 -49 -31 -89 -58 -106 -39 -26 -138 -47 -189 -41
-94 13 -178 98 -178 180 0 96 145 265 251 292 45 12 73 6 97 -21z m451 -57
c140 -63 223 -297 148 -411 -35 -52 -116 -88 -199 -88 -114 0 -203 59 -249
167 -21 50 -25 144 -8 190 19 51 63 106 108 135 56 35 133 38 200 7z m366 6
c176 -46 289 -166 310 -332 6 -40 3 -54 -17 -82 -71 -106 -297 -117 -333 -18
-6 20 -4 53 9 116 14 73 15 96 6 132 -12 46 -36 89 -70 128 -25 29 -25 47 -2
60 23 14 28 14 97 -4z m795 -370 c0 -44 48 -177 81 -224 44 -63 89 -99 162
-130 52 -22 78 -26 162 -27 55 0 106 -3 112 -7 6 -4 14 -19 18 -34 3 -15 38
-102 75 -193 121 -290 119 -402 -11 -665 -67 -136 -95 -248 -106 -422 -3 -57
-10 -103 -14 -103 -5 0 -30 8 -56 19 -130 51 -207 48 -336 -11 -37 -17 -69
-29 -71 -27 -2 2 -9 64 -15 137 -12 152 -24 202 -88 392 -25 74 -59 203 -76
285 -27 132 -30 170 -30 315 -1 189 22 321 88 510 66 191 105 259 105 185z
m5545 -33 c271 -77 489 -188 553 -282 21 -30 23 -43 19 -98 -7 -89 -40 -138
-226 -329 -152 -158 -158 -163 -197 -163 -53 0 -84 28 -84 76 0 52 19 81 140
211 61 65 113 128 117 141 7 30 -12 67 -43 81 -34 15 -78 -5 -148 -68 -31 -28
-60 -51 -64 -51 -8 0 -94 134 -140 220 -31 56 -95 215 -107 262 -13 53 -7 53
180 0z m-869 -910 c24 -23 47 -75 74 -170 41 -142 128 -168 210 -61 19 24 55
65 80 91 103 104 289 114 421 22 93 -64 120 -194 41 -194 -35 0 -52 16 -52 50
0 32 -31 67 -66 76 -15 4 -71 4 -125 1 -165 -9 -198 -45 -234 -259 -14 -85
-95 -137 -211 -138 -135 0 -246 81 -284 210 -56 187 -50 348 13 378 37 18 111
14 133 -6z m-831 -596 c15 -22 15 -27 0 -53 -8 -15 -45 -62 -80 -103 -74 -85
-156 -241 -176 -331 -17 -81 -6 -310 20 -428 12 -52 21 -113 21 -135 0 -89
-60 -146 -155 -146 -74 0 -115 25 -147 89 -24 46 -28 67 -28 137 0 161 74 494
139 622 53 104 199 284 285 350 41 31 100 30 121 -2z m178 -221 c71 -29 79
-101 23 -192 -82 -133 -115 -263 -123 -483 -2 -80 -9 -160 -15 -178 -11 -37
-51 -62 -100 -62 -99 0 -120 103 -83 395 39 312 140 535 240 535 13 0 39 -7
58 -15z m-3670 -201 c180 -46 347 -203 347 -326 0 -32 -5 -40 -32 -54 -53 -27
-149 -15 -238 31 -104 53 -138 50 -224 -19 -32 -26 -47 -31 -91 -31 -43 0 -61
6 -96 31 -63 45 -81 48 -133 24 -54 -24 -79 -25 -100 -4 -21 21 -20 42 5 111
68 180 339 295 562 237z m4065 -61 c60 -28 72 -38 72 -58 0 -13 -4 -26 -9 -30
-15 -8 -57 -89 -81 -152 -16 -42 -24 -95 -30 -191 -7 -110 -13 -140 -32 -175
-44 -80 -149 -87 -239 -16 -55 43 -62 77 -56 253 10 306 88 427 262 408 22 -2
73 -20 113 -39z m728 -38 c74 -36 84 -62 87 -227 2 -122 4 -138 29 -188 34
-69 86 -131 144 -171 37 -25 43 -33 33 -45 -6 -8 -17 -14 -24 -14 -45 0 -288
-205 -368 -310 -20 -26 -30 -33 -40 -25 -117 83 -242 158 -318 190 -74 31
-105 49 -145 91 -97 99 -97 199 1 401 68 139 151 231 256 282 117 57 248 63
345 16z m-4249 -354 c87 -40 128 -139 122 -293 -4 -97 -16 -120 -86 -174 -99
-76 -237 -41 -295 75 -23 46 -28 67 -28 132 0 84 23 165 61 213 49 63 147 83
226 47z m-1136 -5 c96 -16 169 -119 169 -236 0 -88 -22 -149 -76 -209 -62 -69
-100 -85 -168 -71 -67 14 -136 57 -163 101 -44 73 -51 200 -17 296 16 45 80
110 116 117 42 10 73 13 88 10 8 -1 31 -5 51 -8z m628 -89 c22 -15 52 -48 67
-74 23 -39 29 -61 32 -134 5 -99 -9 -156 -53 -213 -67 -87 -218 -103 -282 -28
-37 43 -53 86 -64 173 -18 149 17 239 116 293 45 25 133 17 184 -17z m5185
-407 c83 -12 174 -58 272 -136 137 -111 312 -214 479 -284 38 -16 46 -23 35
-30 -8 -6 -26 -10 -40 -10 -14 0 -63 -12 -110 -26 -133 -40 -124 -40 -182 -2
-69 46 -152 76 -230 84 -50 5 -76 2 -128 -16 -87 -29 -131 -57 -223 -140 -99
-89 -121 -92 -186 -22 -26 28 -54 71 -64 98 -45 128 0 304 104 400 61 56 103
75 199 93 3 0 36 -4 74 -9z m270 -545 c165 -43 288 -138 353 -272 62 -128 55
-261 -16 -332 -44 -44 -96 -61 -189 -61 -185 0 -385 127 -470 298 -31 63 -36
84 -36 141 0 182 154 279 358 226z m1182 -31 c65 -27 186 -161 234 -256 41
-85 60 -177 46 -232 -14 -55 -117 -86 -162 -48 -11 9 -32 34 -47 54 -48 66
-82 61 -187 -27 -118 -98 -238 -129 -391 -101 -132 24 -128 20 -122 118 5 77
3 91 -36 207 -52 157 -54 208 -10 245 30 25 61 32 124 27 37 -4 56 -14 117
-61 61 -49 104 -57 164 -30 26 11 57 31 70 45 66 71 127 89 200 59z"/>
<path d="M19753 14959 c-84 -10 -190 -54 -229 -96 -63 -67 -79 -159 -48 -289
19 -84 46 -139 92 -186 68 -72 173 -60 206 23 28 70 20 100 -52 207 -64 95
-42 167 66 207 38 15 65 17 164 12 131 -7 148 -4 148 25 0 27 -16 40 -80 66
-85 34 -163 43 -267 31z"/>
<path d="M20522 14094 c-28 -20 -29 -61 -1 -117 33 -64 157 -227 184 -239 19
-8 39 -5 107 20 46 16 128 40 182 51 111 24 116 26 116 46 0 23 -35 35 -102
35 -63 0 -65 1 -183 81 -125 85 -226 139 -260 139 -11 0 -31 -7 -43 -16z"/>
<path d="M19233 13895 c-125 -34 -228 -116 -414 -328 -161 -185 -206 -249
-360 -522 -98 -173 -123 -210 -189 -275 -130 -130 -272 -199 -426 -207 -193
-11 -323 56 -400 207 -24 47 -29 67 -29 135 0 67 5 88 27 130 51 97 129 144
238 145 148 0 220 -55 220 -170 0 -52 13 -76 50 -95 47 -24 126 4 178 65 74
86 66 237 -17 332 -77 87 -203 124 -396 115 -187 -9 -310 -57 -430 -169 -123
-115 -185 -267 -185 -455 0 -159 47 -276 153 -382 112 -111 243 -163 416 -163
138 0 220 20 356 86 169 83 277 171 377 307 53 73 76 111 234 394 43 77 122
206 175 286 139 208 250 329 462 502 49 40 58 61 31 71 -9 3 -16 6 -17 5 -1 0
-26 -7 -54 -14z"/>
<path d="M27440 2925 c-188 -52 -328 -190 -375 -372 -13 -48 -15 -185 -15
-895 l0 -838 193 2 192 3 5 827 5 828 30 30 c18 18 46 33 67 36 36 6 79 -11
408 -164 47 -21 108 -49 135 -62 28 -12 318 -145 645 -295 327 -150 730 -334
895 -410 165 -76 489 -224 720 -330 983 -451 996 -456 1073 -472 125 -26 268
4 378 78 56 38 140 132 169 189 56 111 55 96 53 1002 l-3 833 -190 0 -190 0
-5 -827 -5 -826 -24 -26 c-29 -31 -83 -50 -113 -40 -20 6 -174 74 -413 184
-33 15 -303 139 -600 275 -297 136 -602 276 -678 311 -76 35 -140 64 -142 64
-2 0 -56 25 -121 56 -66 31 -182 85 -259 119 -77 35 -176 80 -220 100 -218
100 -384 176 -470 215 -51 22 -236 108 -404 186 -51 24 -95 44 -96 44 -2 0
-43 18 -92 41 -196 92 -220 102 -273 121 -74 27 -208 33 -280 13z"/>
<path d="M595 2908 c-3 -7 -4 -479 -3 -1048 l3 -1035 225 0 225 0 3 373 2 372
1510 0 1510 0 -2 228 -3 227 -1507 3 -1508 2 0 215 0 215 2293 2 2292 3 2 213
c1 117 -1 220 -4 228 -4 12 -346 14 -2519 14 -2003 0 -2516 -3 -2519 -12z"/>
<path d="M6210 1870 l0 -1050 2333 2 2332 3 3 1048 2 1047 -2335 0 -2335 0 0
-1050z m4210 10 c0 -316 0 -581 0 -587 0 -10 -383 -13 -1880 -13 l-1880 0 0
590 0 590 1880 -2 1880 -3 0 -575z"/>
<path d="M11440 1870 l0 -1050 228 2 227 3 3 283 2 282 1804 0 1804 0 53 -92
c29 -51 91 -156 137 -233 46 -77 98 -164 115 -192 l31 -53 259 0 c223 0 258 2
254 15 -6 14 -75 132 -256 438 -44 76 -81 142 -81 146 0 5 34 25 75 44 41 20
96 51 122 69 119 81 235 237 282 376 60 176 50 384 -26 557 -91 205 -265 356
-495 427 l-73 23 -2232 3 -2233 2 0 -1050z m4467 562 c111 -59 173 -157 173
-273 0 -36 -7 -86 -16 -112 -20 -60 -84 -131 -148 -165 l-51 -27 -1982 -3
-1983 -2 0 305 0 305 1983 -2 1982 -3 42 -23z"/>
<path d="M16904 2907 c-2 -7 -3 -109 -2 -227 l3 -215 647 -3 648 -2 2 -818 3
-817 223 -3 c122 -1 222 1 222 5 0 5 1 373 3 818 l2 810 648 3 647 2 0 230 0
230 -1520 0 c-1223 0 -1522 -2 -1526 -13z"/>
<path d="M20335 2908 c-3 -7 -4 -479 -3 -1048 l3 -1035 225 0 225 0 3 398 2
397 2078 -2 2077 -3 2 -385 c2 -212 3 -391 3 -398 0 -10 48 -12 223 -10 l222
3 0 1045 0 1045 -222 3 c-175 2 -223 0 -223 -10 0 -7 0 -196 0 -420 l0 -408
-22 -5 c-13 -3 -948 -4 -2078 -3 l-2055 3 -5 420 -5 420 -223 3 c-173 2 -224
0 -227 -10z"/>
<path d="M26022 1873 l3 -1048 223 -3 222 -2 0 1050 0 1050 -225 0 -225 0 2
-1047z"/>
<path d="M33060 2905 c-211 -43 -375 -194 -442 -408 -23 -71 -23 -78 -23 -622
0 -502 2 -556 18 -615 26 -92 79 -185 145 -254 73 -75 141 -119 239 -153 l78
-28 2293 -3 2292 -2 0 640 0 640 -1850 0 -1850 0 2 -227 c3 -194 5 -228 18
-229 8 -1 738 -2 1623 -2 l1607 -2 0 -180 0 -180 -2014 2 -2014 3 -44 30 c-26
18 -52 48 -65 75 -22 44 -22 52 -23 486 l0 442 33 48 c21 32 48 57 77 72 l44
22 2228 0 2228 0 0 230 0 230 -2267 -1 c-1839 -1 -2280 -3 -2333 -14z"/>
</g>
</svg>
