<?xml version="1.0" standalone="no"?>
<!DOCTYPE svg PUBLIC "-//W3C//DTD SVG 20010904//EN"
 "http://www.w3.org/TR/2001/REC-SVG-20010904/DTD/svg10.dtd">
<svg version="1.0" xmlns="http://www.w3.org/2000/svg"
 width="500.000000pt" height="281.000000pt" viewBox="0 0 500.000000 281.000000"
 preserveAspectRatio="xMidYMid meet">
<metadata>
Created by potrace 1.16, written by Peter Selinger 2001-2019
</metadata>
<g transform="translate(0.000000,281.000000) scale(0.100000,-0.100000)"
fill="#ff0000ff" stroke="none">
<path d="M1580 1817 c0 -950 1 -995 18 -1010 31 -28 68 -21 106 21 19 20 201
231 405 467 204 237 375 430 381 430 8 0 83 -85 609 -694 97 -113 184 -213
194 -223 22 -23 69 -23 90 0 16 17 17 102 17 1010 0 807 -2 992 -13 992 -7 0
-148 -158 -312 -352 -465 -546 -575 -673 -583 -676 -6 -2 -673 771 -837 971
-26 31 -54 57 -61 57 -12 0 -14 -156 -14 -993z"/>
<path d="M2449 1525 c-14 -8 -98 -103 -185 -211 -479 -593 -454 -560 -454
-596 0 -72 -38 -68 688 -68 639 0 652 0 672 20 42 42 31 64 -155 299 -277 352
-427 532 -460 552 -36 22 -70 24 -106 4z"/>
<path d="M1960 340 l0 -200 -103 0 c-112 0 -127 6 -127 52 l0 28 -70 0 -70 0
0 -93 c0 -134 -13 -128 255 -125 l218 3 21 28 c20 27 21 42 24 268 l3 239 -75
0 -76 0 0 -200z"/>
<path d="M2150 265 l0 -265 80 0 79 0 3 117 3 118 50 -112 50 -113 70 0 70 0
57 118 56 117 1 -122 1 -123 80 0 80 0 0 265 0 265 -108 0 -108 0 -62 -132
-63 -133 -61 133 -61 132 -109 0 -108 0 0 -265z"/>
<path d="M2911 514 c-42 -30 -51 -71 -51 -237 0 -184 4 -209 40 -247 l28 -30
206 0 206 0 37 34 c35 32 37 38 41 105 l4 71 -80 0 c-81 0 -81 0 -84 -27 l-3
-28 -115 0 -115 0 0 110 0 110 115 0 115 0 3 -32 3 -33 81 0 80 0 -4 81 c-3
77 -5 82 -36 110 l-32 29 -208 0 c-176 0 -211 -3 -231 -16z"/>
</g>
</svg>
